<mxfile host="app.diagrams.net" modified="2021-09-19T12:21:14.172Z" agent="5.0 (Windows NT 10.0; Win64; x64) AppleWebKit/537.36 (KHTML, like Gecko) Chrome/93.0.4577.82 Safari/537.36" etag="awuAEAXMcEWAXrtUU_71" version="15.2.9" type="github">
  <diagram name="Page-1" id="822b0af5-4adb-64df-f703-e8dfc1f81529">
    <mxGraphModel dx="2031" dy="1103" grid="1" gridSize="10" guides="1" tooltips="1" connect="1" arrows="1" fold="1" page="1" pageScale="1" pageWidth="1100" pageHeight="850" background="none" math="0" shadow="0">
      <root>
        <mxCell id="0" />
        <mxCell id="1" parent="0" />
        <mxCell id="w5ER3e1skpx52HiP8KUn-14" value="クライアント&lt;br&gt;ブラウザ" style="verticalLabelPosition=bottom;sketch=0;aspect=fixed;html=1;verticalAlign=top;strokeColor=none;align=center;outlineConnect=0;shape=mxgraph.citrix.browser;" vertex="1" parent="1">
          <mxGeometry x="50" y="90" width="47.5" height="72.5" as="geometry" />
        </mxCell>
        <mxCell id="w5ER3e1skpx52HiP8KUn-52" value="返答" style="edgeStyle=orthogonalEdgeStyle;rounded=0;orthogonalLoop=1;jettySize=auto;html=1;" edge="1" parent="1" source="w5ER3e1skpx52HiP8KUn-16" target="w5ER3e1skpx52HiP8KUn-53">
          <mxGeometry x="0.1696" relative="1" as="geometry">
            <mxPoint x="550.0285714285715" y="464.78199834847237" as="targetPoint" />
            <Array as="points">
              <mxPoint x="790" y="170" />
              <mxPoint x="790" y="310" />
              <mxPoint x="580" y="310" />
            </Array>
            <mxPoint as="offset" />
          </mxGeometry>
        </mxCell>
        <mxCell id="w5ER3e1skpx52HiP8KUn-16" value="Database&lt;br&gt;(MariaDB)" style="verticalLabelPosition=bottom;sketch=0;aspect=fixed;html=1;verticalAlign=top;strokeColor=none;align=center;outlineConnect=0;shape=mxgraph.citrix.database;" vertex="1" parent="1">
          <mxGeometry x="720" y="152" width="42.5" height="50" as="geometry" />
        </mxCell>
        <mxCell id="w5ER3e1skpx52HiP8KUn-57" value="⑬ Response" style="edgeStyle=orthogonalEdgeStyle;rounded=0;orthogonalLoop=1;jettySize=auto;html=1;" edge="1" parent="1" source="w5ER3e1skpx52HiP8KUn-17" target="w5ER3e1skpx52HiP8KUn-30">
          <mxGeometry relative="1" as="geometry">
            <Array as="points">
              <mxPoint x="340" y="320" />
              <mxPoint x="340" y="320" />
            </Array>
          </mxGeometry>
        </mxCell>
        <mxCell id="w5ER3e1skpx52HiP8KUn-17" value="WebAPI&lt;br&gt;Express (Node.js)" style="verticalLabelPosition=bottom;sketch=0;aspect=fixed;html=1;verticalAlign=top;strokeColor=none;align=center;outlineConnect=0;shape=mxgraph.citrix.web_service;" vertex="1" parent="1">
          <mxGeometry x="436" y="259.75" width="63" height="60" as="geometry" />
        </mxCell>
        <mxCell id="w5ER3e1skpx52HiP8KUn-18" value="① GET" style="edgeStyle=segmentEdgeStyle;endArrow=classic;html=1;" edge="1" parent="1" source="w5ER3e1skpx52HiP8KUn-14" target="w5ER3e1skpx52HiP8KUn-19">
          <mxGeometry width="50" height="50" relative="1" as="geometry">
            <mxPoint x="130" y="170" as="sourcePoint" />
            <mxPoint x="450" y="70" as="targetPoint" />
            <Array as="points">
              <mxPoint x="160" y="110" />
              <mxPoint x="160" y="110" />
            </Array>
          </mxGeometry>
        </mxCell>
        <mxCell id="w5ER3e1skpx52HiP8KUn-19" value="Cloudflare&lt;br&gt;{d.dorayaking.jp}" style="verticalLabelPosition=bottom;sketch=0;aspect=fixed;html=1;verticalAlign=top;strokeColor=none;align=center;outlineConnect=0;shape=mxgraph.citrix.firewall;" vertex="1" parent="1">
          <mxGeometry x="228" y="79.75" width="80.85" height="100.25" as="geometry" />
        </mxCell>
        <mxCell id="w5ER3e1skpx52HiP8KUn-21" value="② GET" style="edgeStyle=segmentEdgeStyle;endArrow=classic;html=1;" edge="1" parent="1" source="w5ER3e1skpx52HiP8KUn-19">
          <mxGeometry width="50" height="50" relative="1" as="geometry">
            <mxPoint x="320" y="170" as="sourcePoint" />
            <mxPoint x="420" y="121" as="targetPoint" />
            <Array as="points">
              <mxPoint x="360" y="121" />
              <mxPoint x="360" y="121" />
            </Array>
          </mxGeometry>
        </mxCell>
        <mxCell id="w5ER3e1skpx52HiP8KUn-28" value="③ Response" style="edgeStyle=segmentEdgeStyle;endArrow=classic;html=1;" edge="1" parent="1" target="w5ER3e1skpx52HiP8KUn-19">
          <mxGeometry width="50" height="50" relative="1" as="geometry">
            <mxPoint x="420" y="140.02857142857135" as="sourcePoint" />
            <mxPoint x="390" y="180" as="targetPoint" />
            <Array as="points">
              <mxPoint x="370" y="140" />
              <mxPoint x="370" y="140" />
            </Array>
          </mxGeometry>
        </mxCell>
        <mxCell id="w5ER3e1skpx52HiP8KUn-29" value="④ Response" style="edgeStyle=segmentEdgeStyle;endArrow=classic;html=1;" edge="1" parent="1" source="w5ER3e1skpx52HiP8KUn-19" target="w5ER3e1skpx52HiP8KUn-14">
          <mxGeometry width="50" height="50" relative="1" as="geometry">
            <mxPoint x="430" y="150.02857142857135" as="sourcePoint" />
            <mxPoint x="313" y="150.02857142857135" as="targetPoint" />
            <Array as="points">
              <mxPoint x="160" y="126" />
              <mxPoint x="160" y="126" />
            </Array>
          </mxGeometry>
        </mxCell>
        <mxCell id="w5ER3e1skpx52HiP8KUn-58" value="⑭ Response" style="edgeStyle=orthogonalEdgeStyle;rounded=0;orthogonalLoop=1;jettySize=auto;html=1;" edge="1" parent="1" source="w5ER3e1skpx52HiP8KUn-30" target="w5ER3e1skpx52HiP8KUn-14">
          <mxGeometry relative="1" as="geometry">
            <Array as="points">
              <mxPoint x="120" y="310" />
              <mxPoint x="120" y="150" />
            </Array>
          </mxGeometry>
        </mxCell>
        <mxCell id="w5ER3e1skpx52HiP8KUn-30" value="Cloudflare&lt;br&gt;{api.dorayaking.jp}" style="verticalLabelPosition=bottom;sketch=0;aspect=fixed;html=1;verticalAlign=top;strokeColor=none;align=center;outlineConnect=0;shape=mxgraph.citrix.firewall;" vertex="1" parent="1">
          <mxGeometry x="228" y="259.75" width="80.85" height="100.25" as="geometry" />
        </mxCell>
        <mxCell id="w5ER3e1skpx52HiP8KUn-31" value="⑤ POST" style="edgeStyle=segmentEdgeStyle;endArrow=classic;html=1;" edge="1" parent="1" source="w5ER3e1skpx52HiP8KUn-14" target="w5ER3e1skpx52HiP8KUn-30">
          <mxGeometry width="50" height="50" relative="1" as="geometry">
            <mxPoint x="110" y="300" as="sourcePoint" />
            <mxPoint x="160" y="250" as="targetPoint" />
            <Array as="points">
              <mxPoint x="170" y="140" />
              <mxPoint x="170" y="280" />
            </Array>
          </mxGeometry>
        </mxCell>
        <mxCell id="w5ER3e1skpx52HiP8KUn-32" value="⑥ POST" style="edgeStyle=segmentEdgeStyle;endArrow=classic;html=1;" edge="1" parent="1" source="w5ER3e1skpx52HiP8KUn-30" target="w5ER3e1skpx52HiP8KUn-17">
          <mxGeometry width="50" height="50" relative="1" as="geometry">
            <mxPoint x="310" y="280" as="sourcePoint" />
            <mxPoint x="410" y="270" as="targetPoint" />
            <Array as="points">
              <mxPoint x="390" y="300" />
              <mxPoint x="390" y="300" />
            </Array>
          </mxGeometry>
        </mxCell>
        <mxCell id="w5ER3e1skpx52HiP8KUn-34" value="⑦ 認証" style="edgeStyle=segmentEdgeStyle;endArrow=classic;html=1;" edge="1" parent="1" source="w5ER3e1skpx52HiP8KUn-17" target="w5ER3e1skpx52HiP8KUn-38">
          <mxGeometry width="50" height="50" relative="1" as="geometry">
            <mxPoint x="540" y="300" as="sourcePoint" />
            <mxPoint x="590" y="250" as="targetPoint" />
            <Array as="points">
              <mxPoint x="520" y="270" />
              <mxPoint x="520" y="177" />
            </Array>
          </mxGeometry>
        </mxCell>
        <mxCell id="w5ER3e1skpx52HiP8KUn-36" value="⑩ 認証結果を返答" style="edgeStyle=segmentEdgeStyle;endArrow=classic;html=1;" edge="1" parent="1" source="w5ER3e1skpx52HiP8KUn-38" target="w5ER3e1skpx52HiP8KUn-17">
          <mxGeometry width="50" height="50" relative="1" as="geometry">
            <mxPoint x="630" y="310" as="sourcePoint" />
            <mxPoint x="680" y="260" as="targetPoint" />
            <Array as="points">
              <mxPoint x="570" y="190" />
              <mxPoint x="570" y="280" />
            </Array>
          </mxGeometry>
        </mxCell>
        <mxCell id="w5ER3e1skpx52HiP8KUn-37" value="WebServer&lt;br&gt;(未定)" style="verticalLabelPosition=bottom;sketch=0;aspect=fixed;html=1;verticalAlign=top;strokeColor=none;align=center;outlineConnect=0;shape=mxgraph.citrix.web_server;" vertex="1" parent="1">
          <mxGeometry x="420" y="84.88" width="76.5" height="90" as="geometry" />
        </mxCell>
        <mxCell id="w5ER3e1skpx52HiP8KUn-38" value="認証サーバー" style="verticalLabelPosition=bottom;sketch=0;aspect=fixed;html=1;verticalAlign=top;strokeColor=none;align=center;outlineConnect=0;shape=mxgraph.citrix.proxy_server;" vertex="1" parent="1">
          <mxGeometry x="590" y="132" width="76.5" height="90" as="geometry" />
        </mxCell>
        <mxCell id="w5ER3e1skpx52HiP8KUn-39" value="⑧" style="edgeStyle=segmentEdgeStyle;endArrow=classic;html=1;" edge="1" parent="1" source="w5ER3e1skpx52HiP8KUn-38" target="w5ER3e1skpx52HiP8KUn-16">
          <mxGeometry width="50" height="50" relative="1" as="geometry">
            <mxPoint x="750" y="350" as="sourcePoint" />
            <mxPoint x="800" y="300" as="targetPoint" />
            <Array as="points">
              <mxPoint x="700" y="170" />
              <mxPoint x="700" y="170" />
            </Array>
          </mxGeometry>
        </mxCell>
        <mxCell id="w5ER3e1skpx52HiP8KUn-40" value="⑨" style="edgeStyle=segmentEdgeStyle;endArrow=classic;html=1;" edge="1" parent="1" source="w5ER3e1skpx52HiP8KUn-16" target="w5ER3e1skpx52HiP8KUn-38">
          <mxGeometry width="50" height="50" relative="1" as="geometry">
            <mxPoint x="730" y="340" as="sourcePoint" />
            <mxPoint x="780" y="290" as="targetPoint" />
            <Array as="points">
              <mxPoint x="700" y="190" />
              <mxPoint x="700" y="190" />
            </Array>
          </mxGeometry>
        </mxCell>
        <mxCell id="w5ER3e1skpx52HiP8KUn-50" value="返答" style="edgeStyle=orthogonalEdgeStyle;rounded=0;orthogonalLoop=1;jettySize=auto;html=1;" edge="1" parent="1" source="w5ER3e1skpx52HiP8KUn-42" target="w5ER3e1skpx52HiP8KUn-53">
          <mxGeometry relative="1" as="geometry">
            <mxPoint x="620" y="410" as="targetPoint" />
            <Array as="points">
              <mxPoint x="670" y="360" />
              <mxPoint x="670" y="430" />
            </Array>
          </mxGeometry>
        </mxCell>
        <mxCell id="w5ER3e1skpx52HiP8KUn-42" value="Database&lt;br&gt;(MongoDB)" style="verticalLabelPosition=bottom;sketch=0;aspect=fixed;html=1;verticalAlign=top;strokeColor=none;align=center;outlineConnect=0;shape=mxgraph.citrix.database;" vertex="1" parent="1">
          <mxGeometry x="720" y="319.75" width="42.5" height="50" as="geometry" />
        </mxCell>
        <mxCell id="w5ER3e1skpx52HiP8KUn-49" value="問い合わせ" style="edgeStyle=orthogonalEdgeStyle;rounded=0;orthogonalLoop=1;jettySize=auto;html=1;" edge="1" parent="1" source="w5ER3e1skpx52HiP8KUn-53" target="w5ER3e1skpx52HiP8KUn-42">
          <mxGeometry x="0.5429" relative="1" as="geometry">
            <mxPoint x="582.9992857142856" y="400.02857142857135" as="sourcePoint" />
            <Array as="points">
              <mxPoint x="650" y="410" />
              <mxPoint x="650" y="345" />
            </Array>
            <mxPoint as="offset" />
          </mxGeometry>
        </mxCell>
        <mxCell id="w5ER3e1skpx52HiP8KUn-51" value="問い合わせ" style="edgeStyle=orthogonalEdgeStyle;rounded=0;orthogonalLoop=1;jettySize=auto;html=1;" edge="1" parent="1" source="w5ER3e1skpx52HiP8KUn-53" target="w5ER3e1skpx52HiP8KUn-16">
          <mxGeometry x="-0.2739" relative="1" as="geometry">
            <mxPoint x="570.0285714285715" y="394.03055326176707" as="sourcePoint" />
            <Array as="points">
              <mxPoint x="570" y="300" />
              <mxPoint x="780" y="300" />
              <mxPoint x="780" y="177" />
            </Array>
            <mxPoint as="offset" />
          </mxGeometry>
        </mxCell>
        <mxCell id="w5ER3e1skpx52HiP8KUn-46" value="⑪" style="edgeStyle=segmentEdgeStyle;endArrow=classic;html=1;" edge="1" parent="1" source="w5ER3e1skpx52HiP8KUn-17" target="w5ER3e1skpx52HiP8KUn-53">
          <mxGeometry width="50" height="50" relative="1" as="geometry">
            <mxPoint x="560" y="370" as="sourcePoint" />
            <mxPoint x="550.5" y="385" as="targetPoint" />
          </mxGeometry>
        </mxCell>
        <mxCell id="w5ER3e1skpx52HiP8KUn-48" value="返答" style="edgeStyle=orthogonalEdgeStyle;rounded=0;orthogonalLoop=1;jettySize=auto;html=1;" edge="1" parent="1" source="w5ER3e1skpx52HiP8KUn-47" target="w5ER3e1skpx52HiP8KUn-53">
          <mxGeometry relative="1" as="geometry">
            <mxPoint x="637" y="425" as="targetPoint" />
            <Array as="points">
              <mxPoint x="590" y="502" />
            </Array>
          </mxGeometry>
        </mxCell>
        <mxCell id="w5ER3e1skpx52HiP8KUn-47" value="Main System&lt;br&gt;(Node.js)" style="verticalLabelPosition=bottom;sketch=0;aspect=fixed;html=1;verticalAlign=top;strokeColor=none;align=center;outlineConnect=0;shape=mxgraph.citrix.tower_server;" vertex="1" parent="1">
          <mxGeometry x="708.75" y="460" width="65" height="85" as="geometry" />
        </mxCell>
        <mxCell id="w5ER3e1skpx52HiP8KUn-54" value="問い合わせ" style="edgeStyle=orthogonalEdgeStyle;rounded=0;orthogonalLoop=1;jettySize=auto;html=1;" edge="1" parent="1" source="w5ER3e1skpx52HiP8KUn-53" target="w5ER3e1skpx52HiP8KUn-47">
          <mxGeometry relative="1" as="geometry">
            <Array as="points">
              <mxPoint x="570" y="520" />
            </Array>
          </mxGeometry>
        </mxCell>
        <mxCell id="w5ER3e1skpx52HiP8KUn-56" value="⑫" style="edgeStyle=orthogonalEdgeStyle;rounded=0;orthogonalLoop=1;jettySize=auto;html=1;" edge="1" parent="1" source="w5ER3e1skpx52HiP8KUn-53">
          <mxGeometry relative="1" as="geometry">
            <mxPoint x="470" y="360" as="targetPoint" />
          </mxGeometry>
        </mxCell>
        <mxCell id="w5ER3e1skpx52HiP8KUn-53" value="&#xa;&#xa;&lt;span style=&quot;color: rgb(0, 0, 0); font-family: helvetica; font-size: 12px; font-style: normal; font-weight: 400; letter-spacing: normal; text-align: center; text-indent: 0px; text-transform: none; word-spacing: 0px; background-color: rgb(248, 249, 250); display: inline; float: none;&quot;&gt;内容に応じて処理&lt;/span&gt;&#xa;&#xa;" style="rounded=0;whiteSpace=wrap;html=1;" vertex="1" parent="1">
          <mxGeometry x="490" y="390" width="120" height="60" as="geometry" />
        </mxCell>
      </root>
    </mxGraphModel>
  </diagram>
</mxfile>
